<?xml version="1.0" encoding="UTF-8" standalone="no"?><svg xmlns="http://www.w3.org/2000/svg" xmlns:xlink="http://www.w3.org/1999/xlink" fill="#000000" height="73.6" preserveAspectRatio="xMidYMid meet" version="1" viewBox="0.0 0.0 87.1 73.6" width="87.1" zoomAndPan="magnify"><g fill="#004b84" id="change1_1"><path d="M19.4,5.9c0-0.1,0.1-0.1,0.1-0.1c0.1-0.1,0.2-0.1,0.3-0.1s0.3,0.1,0.4,0.1c10,9.5,20.5,1.8,22.7,0l0.2-0.2 h0.4l0.2,0.2c2.2,1.8,12.7,9.5,22.7,0c0.1-0.1,0.2-0.1,0.4-0.1c0.1,0,0.2,0,0.3,0.1c0.1,0,0.1,0.1,0.1,0.1 c1.9,1.9,10.3,9.1,19.2,1.4c0.1-0.1,0.2-0.2,0.2-0.4V3.2c0-0.3-0.2-0.5-0.5-0.5H86c-0.1,0-0.2,0.1-0.3,0.1 C83,4.2,74.5,7.4,66.9,0.2L66.7,0h-0.4c-0.1,0-0.2,0.1-0.3,0.2C63.7,1.9,53.2,9,43.9,0.3l-0.1-0.1C43.7,0.1,43.6,0,43.4,0 c-0.1,0-0.3,0.1-0.4,0.2l-0.1,0.1C33.6,9,23.1,1.9,20.8,0.2C20.7,0.1,20.7,0,20.5,0h-0.4l-0.2,0.2c-7.7,7.3-16.1,4-18.8,2.6 c-0.3,0-0.4-0.1-0.5-0.1h0H0.5C0.2,2.7,0,2.9,0,3.2v3.7c0,0.2,0.1,0.3,0.2,0.4C9.1,15,17.4,7.8,19.4,5.9z" fill="inherit"/><path d="M19.3,19.1L19.3,19.1C19.3,19,19.4,19,19.3,19.1c0.2-0.2,0.3-0.2,0.4-0.2S20,19,20.1,19 c10,9.5,20.5,1.8,22.7,0l0.2-0.2h0.4l0.2,0.2c2.2,1.8,12.7,9.5,22.7,0c0.1-0.1,0.2-0.1,0.4-0.1c0.1,0,0.2,0,0.3,0.1 c0.1,0,0.1,0.1,0.1,0.1c1.9,1.9,10.3,9.1,19.2,1.4c0.1-0.1,0.2-0.2,0.2-0.4v-3.7c0-0.3-0.2-0.5-0.5-0.5h-0.1 c-0.1,0-0.2,0.1-0.3,0.1c-2.7,1.4-11.2,4.6-18.8-2.6l-0.2-0.2c-0.1,0-0.1-0.1-0.2-0.1h-0.2c-0.1,0-0.2,0.1-0.3,0.2 c-2.3,1.7-12.8,8.8-22.1,0.1l-0.1-0.1c-0.1-0.1-0.2-0.1-0.4-0.1c-0.1,0-0.3,0.1-0.4,0.1l-0.1,0.1C33.5,22.1,23,15,20.7,13.3 c-0.1-0.1-0.1-0.2-0.3-0.2h-0.2c-0.1,0-0.1,0-0.2,0.1l-0.2,0.2C12.1,20.6,3.7,17.4,1,16c-0.1,0-0.2-0.1-0.3-0.1H0.6 c-0.3,0-0.5,0.2-0.5,0.5v3.7c0,0.2,0.1,0.3,0.2,0.4C9,28.2,17.4,21,19.3,19.1z" fill="inherit"/><path d="M87,53.5L87,53.5c-2-2.7-15.1-19.4-33.4-19.4c-15.9,0-33,14.4-33,14.4S14.2,35.4,1.1,34.1H0.8 c-0.3,0-0.5,0.3-0.5,0.5s0.2,0.5,0.2,0.5c1.7,2.8,6,10.8,6,18.7c0,8-4.3,16-6,18.8l-0.1,0.2c0,0.1-0.1,0.2-0.1,0.3 c0,0.3,0.2,0.5,0.5,0.5H1c13.1-1.2,19.6-14.4,19.6-14.4s17,14.4,33,14.4C71.9,73.6,85,56.9,87,54.2c0.1-0.1,0.1-0.1,0.1-0.2v-0.2 v-0.2L87,53.5z M63.7,56c-3,0-5.4-2.4-5.4-5.4s2.4-5.3,5.4-5.3s5.4,2.4,5.4,5.3C69.1,53.6,66.7,56,63.7,56z" fill="inherit"/></g></svg>